<?xml version="1.0" encoding="UTF-8" standalone="no"?>
<!-- Created with Inkscape (http://www.inkscape.org/) -->

<svg
   xmlns:dc="http://purl.org/dc/elements/1.1/"
   xmlns:cc="http://creativecommons.org/ns#"
   xmlns:rdf="http://www.w3.org/1999/02/22-rdf-syntax-ns#"
   xmlns:svg="http://www.w3.org/2000/svg"
   xmlns="http://www.w3.org/2000/svg"
   xmlns:sodipodi="http://sodipodi.sourceforge.net/DTD/sodipodi-0.dtd"
   xmlns:inkscape="http://www.inkscape.org/namespaces/inkscape"
   width="101.63981mm"
   height="69.517647mm"
   viewBox="0 0 360.14106 246.32237"
   id="svg2"
   version="1.1"
   inkscape:version="0.91 r13725"
   sodipodi:docname="logo.svg">
  <defs
     id="defs4">
    <clipPath
       clipPathUnits="userSpaceOnUse"
       id="clipPath4201">
      <rect
         style="opacity:0.4;fill:#ccff42;fill-opacity:1;stroke:none;stroke-width:8;stroke-linecap:round;stroke-linejoin:round;stroke-miterlimit:4;stroke-dasharray:3.97775054, 1.98887527;stroke-dashoffset:0;stroke-opacity:1"
         id="rect4203"
         width="145.71426"
         height="125.34178"
         x="55.714275"
         y="32.734707"
         ry="9.5712214" />
    </clipPath>
  </defs>
  <sodipodi:namedview
     id="base"
     pagecolor="#ffffff"
     bordercolor="#666666"
     borderopacity="1.0"
     inkscape:pageopacity="0.0"
     inkscape:pageshadow="2"
     inkscape:zoom="0.49497475"
     inkscape:cx="-49.440435"
     inkscape:cy="-72.028992"
     inkscape:document-units="px"
     inkscape:current-layer="layer1"
     showgrid="false"
     showguides="true"
     inkscape:guide-bbox="true"
     inkscape:window-width="1797"
     inkscape:window-height="914"
     inkscape:window-x="0"
     inkscape:window-y="47"
     inkscape:window-maximized="0"
     inkscape:snap-global="false"
     fit-margin-top="15"
     fit-margin-left="15"
     fit-margin-right="15"
     fit-margin-bottom="15">
    <sodipodi:guide
       position="318.92858,193.21428"
       orientation="0,1"
       id="guide4158" />
    <sodipodi:guide
       position="324.28572,53.571428"
       orientation="0,1"
       id="guide4160" />
    <sodipodi:guide
       position="52.142858,165"
       orientation="1,0"
       id="guide4177" />
    <sodipodi:guide
       position="309.64286,83.214285"
       orientation="0,1"
       id="guide4263" />
    <sodipodi:guide
       position="307.08638,-103.03556"
       orientation="1,0"
       id="guide4338" />
  </sodipodi:namedview>
  <metadata
     id="metadata7">
    <rdf:RDF>
      <cc:Work
         rdf:about="">
        <dc:format>image/svg+xml</dc:format>
        <dc:type
           rdf:resource="http://purl.org/dc/dcmitype/StillImage" />
        <dc:title></dc:title>
      </cc:Work>
    </rdf:RDF>
  </metadata>
  <g
     inkscape:label="Layer 1"
     inkscape:groupmode="layer"
     id="layer1"
     transform="translate(24.241846,46.680247)">
    <g
       id="g4321"
       transform="translate(-754.2857,-65.714279)">
      <path
         inkscape:connector-curvature="0"
         id="rect4285"
         d="m 940.16721,73.683645 c -5.30245,0 -9.57031,4.26981 -9.57031,9.572266 l 0,69.427729 c 0,5.30246 4.26786,9.57227 9.57031,9.57227 l 3.97657,0 0,18.4082 18.4082,-18.4082 41.33012,0 c 5.3024,0 9.5722,-4.26981 9.5722,-9.57227 l 0,-69.427729 c 0,-5.302456 -4.2698,-9.572266 -9.5722,-9.572266 l -63.71489,0 z"
         style="opacity:1;fill:#f19abc;fill-opacity:1;stroke:#9e2e58;stroke-width:3;stroke-linecap:round;stroke-linejoin:round;stroke-miterlimit:4;stroke-dasharray:none;stroke-dashoffset:0;stroke-opacity:1" />
      <g
         id="text4290"
         style="font-style:normal;font-weight:normal;font-size:40px;line-height:125%;font-family:Sans;letter-spacing:0px;word-spacing:0px;fill:#000000;fill-opacity:1;stroke:none;stroke-width:1px;stroke-linecap:butt;stroke-linejoin:miter;stroke-opacity:1">
        <path
           id="path4295"
           style="font-style:normal;font-variant:normal;font-weight:normal;font-stretch:normal;font-size:40px;line-height:125%;font-family:ABeeZee;-inkscape-font-specification:'ABeeZee, Normal';text-align:start;writing-mode:lr-tb;text-anchor:start"
           d="m 783.19347,182.12679 3.6,0 0,10.96 q 0.4,-0.44 1,-0.92 0.6,-0.48 1.32,-0.84 0.76,-0.4 1.68,-0.64 0.92,-0.24 2,-0.24 1.8,0 3.44,0.72 1.68,0.72 2.92,2.08 1.28,1.36 2.04,3.36 0.76,2 0.76,4.52 0,2.48 -0.8,4.52 -0.8,2.04 -2.12,3.52 -1.32,1.44 -3.04,2.24 -1.68,0.8 -3.44,0.8 -1.8,0 -3.4,-0.64 -1.56,-0.64 -2.6,-1.56 l 0,1.72 -3.36,0 0,-29.6 z m 15.08,19.12 q 0,-1.8 -0.52,-3.2 -0.48,-1.44 -1.36,-2.44 -0.84,-1 -2,-1.52 -1.12,-0.52 -2.4,-0.52 -1.72,0 -3.12,0.88 -1.36,0.84 -2.08,1.84 l 0,11.12 q 0.92,0.72 2.16,1.16 1.24,0.44 2.64,0.44 1.44,0 2.68,-0.56 1.24,-0.56 2.12,-1.56 0.88,-1.04 1.36,-2.44 0.52,-1.44 0.52,-3.2 z"
           inkscape:connector-curvature="0" />
        <path
           id="path4297"
           style="font-style:normal;font-variant:normal;font-weight:normal;font-stretch:normal;font-size:40px;line-height:125%;font-family:ABeeZee;-inkscape-font-specification:'ABeeZee, Normal';text-align:start;writing-mode:lr-tb;text-anchor:start"
           d="m 810.54347,211.72679 -3.6,0 0,-20.8 3.6,0 0,20.8 z m -1.8,-24.36 q -1.04,0 -1.8,-0.72 -0.72,-0.76 -0.72,-1.8 0,-1.16 0.68,-1.84 0.68,-0.68 1.84,-0.68 1.04,0 1.76,0.76 0.76,0.72 0.76,1.76 0,1.16 -0.68,1.84 -0.68,0.68 -1.84,0.68 z"
           inkscape:connector-curvature="0" />
        <path
           id="path4299"
           style="font-style:normal;font-variant:normal;font-weight:normal;font-stretch:normal;font-size:40px;line-height:125%;font-family:ABeeZee;-inkscape-font-specification:'ABeeZee, Normal';text-align:start;writing-mode:lr-tb;text-anchor:start"
           d="m 818.58347,185.12679 2.76,0 0,6.56 5.76,0 0,3.12 -5.76,0 0,10.04 q 0,1.16 0.24,1.96 0.28,0.8 0.72,1.28 0.44,0.48 1.04,0.72 0.64,0.2 1.32,0.2 1,0 1.88,-0.32 0.88,-0.32 1.68,-0.76 l 1,2.88 q -0.8,0.48 -2.16,0.92 -1.36,0.48 -2.84,0.48 -3,0 -4.76,-1.96 -1.72,-1.96 -1.72,-5.68 l 0,-9.76 -3.6,0 0,-3.12 3.68,0 0.76,-6.56 z"
           inkscape:connector-curvature="0" />
        <path
           id="path4301"
           style="font-style:normal;font-variant:normal;font-weight:normal;font-stretch:normal;font-size:40px;line-height:125%;font-family:ABeeZee;-inkscape-font-specification:'ABeeZee, Normal';text-align:start;writing-mode:lr-tb;text-anchor:start"
           d="m 832.80284,182.12679 3.6,0 0,10.96 q 0.4,-0.44 1,-0.92 0.6,-0.48 1.32,-0.84 0.76,-0.4 1.68,-0.64 0.92,-0.24 2,-0.24 1.8,0 3.44,0.72 1.68,0.72 2.92,2.08 1.28,1.36 2.04,3.36 0.76,2 0.76,4.52 0,2.48 -0.8,4.52 -0.8,2.04 -2.12,3.52 -1.32,1.44 -3.04,2.24 -1.68,0.8 -3.44,0.8 -1.8,0 -3.4,-0.64 -1.56,-0.64 -2.6,-1.56 l 0,1.72 -3.36,0 0,-29.6 z m 15.08,19.12 q 0,-1.8 -0.52,-3.2 -0.48,-1.44 -1.36,-2.44 -0.84,-1 -2,-1.52 -1.12,-0.52 -2.4,-0.52 -1.72,0 -3.12,0.88 -1.36,0.84 -2.08,1.84 l 0,11.12 q 0.92,0.72 2.16,1.16 1.24,0.44 2.64,0.44 1.44,0 2.68,-0.56 1.24,-0.56 2.12,-1.56 0.88,-1.04 1.36,-2.44 0.52,-1.44 0.52,-3.2 z"
           inkscape:connector-curvature="0" />
        <path
           id="path4303"
           style="font-style:normal;font-variant:normal;font-weight:normal;font-stretch:normal;font-size:40px;line-height:125%;font-family:ABeeZee;-inkscape-font-specification:'ABeeZee, Normal';text-align:start;writing-mode:lr-tb;text-anchor:start"
           d="m 875.15284,211.92679 q -1.92,0 -3.04,-0.76 -1.12,-0.76 -1.56,-2.2 -1.4,1.44 -3.24,2.36 -1.8,0.88 -3.96,0.88 -1.36,0 -2.64,-0.44 -1.24,-0.4 -2.24,-1.32 -0.96,-0.92 -1.56,-2.4 -0.56,-1.48 -0.56,-3.6 l 0,-13.52 3.6,0 0,13.04 q 0,2.44 1,3.76 1.04,1.28 3.08,1.28 1.68,0 3.2,-0.64 1.52,-0.68 2.72,-1.8 l 0,-15.64 3.6,0 0,15.4 q 0,0.88 0.2,1.44 0.2,0.52 0.52,0.84 0.32,0.28 0.76,0.4 0.44,0.12 0.88,0.12 l -0.76,2.8 z"
           inkscape:connector-curvature="0" />
        <path
           id="path4305"
           style="font-style:normal;font-variant:normal;font-weight:normal;font-stretch:normal;font-size:40px;line-height:125%;font-family:ABeeZee;-inkscape-font-specification:'ABeeZee, Normal';text-align:start;writing-mode:lr-tb;text-anchor:start"
           d="m 893.58284,194.72679 q -1.16,-0.56 -2.16,-0.8 -1,-0.28 -2.24,-0.28 -1.4,0 -2.64,0.52 -1.2,0.52 -2.08,1.52 -0.88,0.96 -1.4,2.36 -0.48,1.4 -0.48,3.2 0,1.64 0.44,3.04 0.48,1.4 1.32,2.48 0.84,1.04 2,1.64 1.16,0.6 2.6,0.6 1.52,0 2.6,-0.32 1.08,-0.32 2.32,-1 l 1.12,3.04 q -1.28,0.68 -2.8,1.08 -1.52,0.4 -3.48,0.4 -2.24,0 -4.04,-0.8 -1.8,-0.8 -3.08,-2.24 -1.28,-1.44 -2,-3.44 -0.68,-2 -0.68,-4.4 0,-2.24 0.68,-4.2 0.72,-2 2.04,-3.48 1.32,-1.48 3.16,-2.32 1.88,-0.88 4.2,-0.88 1.8,0 3.12,0.32 1.32,0.32 2.56,0.92 l -1.08,3.04 z"
           inkscape:connector-curvature="0" />
        <path
           id="path4307"
           style="font-style:normal;font-variant:normal;font-weight:normal;font-stretch:normal;font-size:40px;line-height:125%;font-family:ABeeZee;-inkscape-font-specification:'ABeeZee, Normal';text-align:start;writing-mode:lr-tb;text-anchor:start"
           d="m 899.20909,182.12679 3.6,0 0,16.92 9.4,-8.52 2.08,2.28 -8.04,7.12 9.8,9.8 -2.48,2.4 -10.76,-11.08 0,10.68 -3.6,0 0,-29.6 z"
           inkscape:connector-curvature="0" />
        <path
           id="path4309"
           style="font-style:normal;font-variant:normal;font-weight:normal;font-stretch:normal;font-size:40px;line-height:125%;font-family:ABeeZee;-inkscape-font-specification:'ABeeZee, Normal';text-align:start;writing-mode:lr-tb;text-anchor:start"
           d="m 921.33284,202.80679 q 0.36,2.92 2.04,4.56 1.68,1.64 4.44,1.64 1.8,0 3.24,-0.36 1.44,-0.4 2.76,-1 l 0.84,3.08 q -1.44,0.68 -3.24,1.08 -1.8,0.4 -4.04,0.4 -2.24,0 -4.04,-0.72 -1.8,-0.76 -3.08,-2.12 -1.24,-1.4 -1.92,-3.4 -0.68,-2.04 -0.68,-4.64 0,-2.32 0.68,-4.32 0.68,-2 1.92,-3.44 1.24,-1.48 2.96,-2.28 1.72,-0.84 3.84,-0.84 2.24,0 3.92,0.76 1.68,0.76 2.8,2.08 1.12,1.32 1.68,3.08 0.56,1.76 0.56,3.72 0,1.4 -0.12,2.72 l -14.56,0 z m 5.64,-9.24 q -2.36,0 -3.88,1.6 -1.48,1.6 -1.8,4.72 l 11.4,0 q 0,-3.04 -1.52,-4.68 -1.52,-1.64 -4.2,-1.64 z"
           inkscape:connector-curvature="0" />
        <path
           id="path4311"
           style="font-style:normal;font-variant:normal;font-weight:normal;font-stretch:normal;font-size:40px;line-height:125%;font-family:ABeeZee;-inkscape-font-specification:'ABeeZee, Normal';text-align:start;writing-mode:lr-tb;text-anchor:start"
           d="m 942.48972,185.12679 2.76,0 0,6.56 5.76,0 0,3.12 -5.76,0 0,10.04 q 0,1.16 0.24,1.96 0.28,0.8 0.72,1.28 0.44,0.48 1.04,0.72 0.64,0.2 1.32,0.2 1,0 1.88,-0.32 0.88,-0.32 1.68,-0.76 l 1,2.88 q -0.8,0.48 -2.16,0.92 -1.36,0.48 -2.84,0.48 -3,0 -4.76,-1.96 -1.72,-1.96 -1.72,-5.68 l 0,-9.76 -3.6,0 0,-3.12 3.68,0 0.76,-6.56 z"
           inkscape:connector-curvature="0" />
        <path
           id="path4313"
           style="font-style:normal;font-variant:normal;font-weight:normal;font-stretch:normal;font-size:40px;line-height:125%;font-family:ABeeZee;-inkscape-font-specification:'ABeeZee, Normal';text-align:start;writing-mode:lr-tb;text-anchor:start"
           d="m 957.02909,211.72679 q -0.12,-0.72 -0.12,-1.48 0,-2.56 0.92,-4.64 0.96,-2.08 2.36,-3.76 1.4,-1.72 3,-3.16 1.64,-1.48 3.04,-2.8 1.4,-1.36 2.32,-2.68 0.96,-1.36 0.96,-2.88 0,-1.68 -1.24,-2.76 -1.24,-1.12 -3.2,-1.12 -1.68,0 -3.08,0.68 -1.36,0.64 -2.56,1.76 l -2,-2.44 q 1.6,-1.44 3.52,-2.32 1.96,-0.88 4.52,-0.88 1.76,0 3.2,0.52 1.48,0.52 2.48,1.48 1.04,0.92 1.6,2.16 0.56,1.24 0.56,2.68 0,1.92 -0.88,3.56 -0.84,1.6 -2.16,3.08 -1.28,1.44 -2.84,2.8 -1.52,1.32 -2.88,2.72 -1.36,1.4 -2.4,2.92 -1,1.52 -1.2,3.28 l 12.32,0 0,3.28 -16.24,0 z"
           inkscape:connector-curvature="0" />
        <path
           id="path4315"
           style="font-style:normal;font-variant:normal;font-weight:normal;font-stretch:normal;font-size:40px;line-height:125%;font-family:ABeeZee;-inkscape-font-specification:'ABeeZee, Normal';text-align:start;writing-mode:lr-tb;text-anchor:start"
           d="m 980.41347,207.04679 q 1.04,0.92 2.6,1.48 1.6,0.56 3.4,0.56 2.24,0 3.36,-0.72 1.16,-0.76 1.16,-1.92 0,-0.6 -0.24,-1.12 -0.2,-0.52 -0.8,-1 -0.56,-0.48 -1.56,-0.92 -1,-0.48 -2.6,-1.04 -2.96,-1 -4.4,-2.36 -1.44,-1.4 -1.44,-3.84 0,-1.2 0.52,-2.24 0.56,-1.04 1.56,-1.8 1.04,-0.8 2.48,-1.24 1.48,-0.44 3.36,-0.44 2.04,0 3.56,0.44 1.56,0.4 2.8,1.04 l -1,2.96 q -1.08,-0.64 -2.48,-1.04 -1.36,-0.4 -3.04,-0.4 -2.08,0 -3.16,0.84 -1.08,0.84 -1.08,1.84 0,0.48 0.16,0.88 0.2,0.4 0.68,0.76 0.48,0.36 1.28,0.72 0.8,0.36 2,0.76 1.96,0.68 3.32,1.4 1.36,0.68 2.2,1.52 0.84,0.84 1.2,1.84 0.36,0.96 0.36,2.16 0,1.4 -0.6,2.52 -0.6,1.12 -1.68,1.92 -1.08,0.76 -2.64,1.16 -1.52,0.44 -3.4,0.44 -2.4,0 -4.28,-0.6 -1.88,-0.6 -3.12,-1.56 l 1.52,-3 z"
           inkscape:connector-curvature="0" />
        <path
           id="path4317"
           style="font-style:normal;font-variant:normal;font-weight:normal;font-stretch:normal;font-size:40px;line-height:125%;font-family:ABeeZee;-inkscape-font-specification:'ABeeZee, Normal';text-align:start;writing-mode:lr-tb;text-anchor:start"
           d="m 1002.9235,194.40679 q 1.12,-1.68 2.84,-2.8 1.76,-1.16 4.16,-1.16 3.52,0 5.24,2.12 1.76,2.12 1.76,5.6 l 0,13.56 -3.6,0 0,-13.16 q 0,-2.28 -1.04,-3.6 -1.04,-1.36 -2.96,-1.36 -0.92,0 -1.8,0.36 -0.88,0.32 -1.72,0.92 -0.8,0.6 -1.52,1.4 -0.68,0.8 -1.24,1.68 l 0,13.76 -3.60003,0 0,-20.8 3.48003,0 0,3.48 z"
           inkscape:connector-curvature="0" />
        <path
           id="path4319"
           style="font-style:normal;font-variant:normal;font-weight:normal;font-stretch:normal;font-size:40px;line-height:125%;font-family:ABeeZee;-inkscape-font-specification:'ABeeZee, Normal';text-align:start;writing-mode:lr-tb;text-anchor:start"
           d="m 1022.8353,207.04679 q 1.04,0.92 2.6,1.48 1.6,0.56 3.4,0.56 2.24,0 3.36,-0.72 1.16,-0.76 1.16,-1.92 0,-0.6 -0.24,-1.12 -0.2,-0.52 -0.8,-1 -0.56,-0.48 -1.56,-0.92 -1,-0.48 -2.6,-1.04 -2.96,-1 -4.4,-2.36 -1.44,-1.4 -1.44,-3.84 0,-1.2 0.52,-2.24 0.56,-1.04 1.56,-1.8 1.04,-0.8 2.48,-1.24 1.48,-0.44 3.36,-0.44 2.04,0 3.56,0.44 1.56,0.4 2.8,1.04 l -1,2.96 q -1.08,-0.64 -2.48,-1.04 -1.36,-0.4 -3.04,-0.4 -2.08,0 -3.16,0.84 -1.08,0.84 -1.08,1.84 0,0.48 0.16,0.88 0.2,0.4 0.68,0.76 0.48,0.36 1.28,0.72 0.8,0.36 2,0.76 1.96,0.68 3.32,1.4 1.36,0.68 2.2,1.52 0.84,0.84 1.2,1.84 0.36,0.96 0.36,2.16 0,1.4 -0.6,2.52 -0.6,1.12 -1.68,1.92 -1.08,0.76 -2.64,1.16 -1.52,0.44 -3.4,0.44 -2.4,0 -4.28,-0.6 -1.88,-0.6 -3.12,-1.56 l 1.52,-3 z"
           inkscape:connector-curvature="0" />
      </g>
    </g>
  </g>
</svg>
